# xmcd
#
# Track frame offsets:
#	150
#	18323
#	33960
#	51872
#	67521
#	83810
#	101995
#	119340
#	137438
#	153112
#	170831
#	183827
#	198571
#	216947
#	232259
#	249240
#	263188
#	280217
#	297387
#	305950
#
# Disc length: 4300
#
# Revision: 2
# Processed by: cddbd v1.5.1PL0 Copyright (c) Steve Scherf et al.
# Submitted via: audiograbber 1.83.01
# Normalized: r1:DSETVAR1
#
DISCID=2410ca14
DTITLE=Various Artist - CDX 364
DYEAR=2005
DGENRE=Country
TTITLE0=Big and Rich - Big time
TTITLE1=Ricky Skaggs - Enjoy the ride
TTITLE2=Billy Gilman - Everything and more
TTITLE3=Gretchen Wilson - Homewrecker
TTITLE4=Toby Keith - Honky tonk U
TTITLE5=Darryl Worley - If something should happen
TTITLE6=Travis Tritt - I see me
TTITLE7=George Canyon - My name
TTITLE8=Diamond Rio - One believer
TTITLE9=Hanna McEuen - Something like a broken heart
TTITLE10=Trent Willmon - The good life
TTITLE11=Brian McComas - The middle of nowhere
TTITLE12=Kevin Fowler - Hard man to love
TTITLE13=Roger Marshall and the Law - Hiding in the wide open
TTITLE14=Christy Lane - I'm with you tonight
TTITLE15=Steve Porter - Back to the country
TTITLE16=Cowboy hat - Adam Marshall
TTITLE17=Kevin Maines - Pretty lady
TTITLE18=Tim Wilson - Chruich league softball fist fight
TTITLE19=Sam Oaks - Beauty lies in the eyes of the beholder
EXTD=
EXTT0=
EXTT1=
EXTT2=
EXTT3=
EXTT4=
EXTT5=
EXTT6=
EXTT7=
EXTT8=
EXTT9=
EXTT10=
EXTT11=
EXTT12=
EXTT13=
EXTT14=
EXTT15=
EXTT16=
EXTT17=
EXTT18=
EXTT19=
PLAYORDER=
